<svg class="wave" id="visual" viewBox="0 0 900 600" width="900" height="600" xmlns="http://www.w3.org/2000/svg" xmlns:xlink="http://www.w3.org/1999/xlink" version="1.1"><path class="wave-path" d="M0 350L4.8 331.7C9.7 313.3 19.3 276.7 29 263.5C38.7 250.3 48.3 260.7 58 281.7C67.7 302.7 77.3 334.3 87 325.5C96.7 316.7 106.3 267.3 116 268C125.7 268.7 135.3 319.3 145 324.2C154.7 329 164.3 288 174 273.5C183.7 259 193.3 271 203 265.8C212.7 260.7 222.3 238.3 232 252.7C241.7 267 251.3 318 261 345.7C270.7 373.3 280.3 377.7 290 362.3C299.7 347 309.3 312 319 289.7C328.7 267.3 338.3 257.7 348 262C357.7 266.3 367.3 284.7 377 284.2C386.7 283.7 396.3 264.3 406 249.8C415.7 235.3 425.3 225.7 435.2 236C445 246.3 455 276.7 464.8 298.7C474.7 320.7 484.3 334.3 494 344.7C503.7 355 513.3 362 523 359C532.7 356 542.3 343 552 331C561.7 319 571.3 308 581 315.2C590.7 322.3 600.3 347.7 610 338.3C619.7 329 629.3 285 639 284.8C648.7 284.7 658.3 328.3 668 348.8C677.7 369.3 687.3 366.7 697 352C706.7 337.3 716.3 310.7 726 299.8C735.7 289 745.3 294 755 302C764.7 310 774.3 321 784 310.3C793.7 299.7 803.3 267.3 813 256.7C822.7 246 832.3 257 842 267.8C851.7 278.7 861.3 289.3 871 280.8C880.7 272.3 890.3 244.7 895.2 230.8L900 217L900 0L895.2 0C890.3 0 880.7 0 871 0C861.3 0 851.7 0 842 0C832.3 0 822.7 0 813 0C803.3 0 793.7 0 784 0C774.3 0 764.7 0 755 0C745.3 0 735.7 0 726 0C716.3 0 706.7 0 697 0C687.3 0 677.7 0 668 0C658.3 0 648.7 0 639 0C629.3 0 619.7 0 610 0C600.3 0 590.7 0 581 0C571.3 0 561.7 0 552 0C542.3 0 532.7 0 523 0C513.3 0 503.7 0 494 0C484.3 0 474.7 0 464.8 0C455 0 445 0 435.2 0C425.3 0 415.7 0 406 0C396.3 0 386.7 0 377 0C367.3 0 357.7 0 348 0C338.3 0 328.7 0 319 0C309.3 0 299.7 0 290 0C280.3 0 270.7 0 261 0C251.3 0 241.7 0 232 0C222.3 0 212.7 0 203 0C193.3 0 183.7 0 174 0C164.3 0 154.7 0 145 0C135.3 0 125.7 0 116 0C106.3 0 96.7 0 87 0C77.3 0 67.7 0 58 0C48.3 0 38.7 0 29 0C19.3 0 9.7 0 4.8 0L0 0Z" fill="#0066FF" stroke-linecap="round" stroke-linejoin="miter"></path></svg>